<svg width="24" height="24" viewBox="0 0 24 24" fill="none" xmlns="http://www.w3.org/2000/svg">
<g clip-path="url(#clip0_5130_2147)">
<path d="M21.4629 1.71436H2.53715C2.08201 1.71436 1.71429 2.08207 1.71429 2.53721V21.4629C1.71429 21.9181 2.08201 22.2858 2.53715 22.2858H21.4629C21.918 22.2858 22.2857 21.9181 22.2857 21.4629V2.53721C22.2857 2.08207 21.918 1.71436 21.4629 1.71436ZM19.0869 7.71864H17.4437C16.1554 7.71864 15.906 8.33064 15.906 9.23064V11.2132H18.9814L18.5803 14.3169H15.906V22.2858H12.6994V14.3195H10.0174V11.2132H12.6994V8.92464C12.6994 6.26836 14.322 4.82064 16.6929 4.82064C17.8294 4.82064 18.804 4.9055 19.0894 4.94407V7.71864H19.0869Z" fill="white"/>
</g>
<defs>
<clipPath id="clip0_5130_2147">
<rect width="20.5714" height="20.5714" fill="white" transform="translate(1.71429 1.71436)"/>
</clipPath>
</defs>
</svg>
