<svg width="24" height="24" viewBox="0 0 24 24" fill="none" xmlns="http://www.w3.org/2000/svg">
<g clip-path="url(#clip0_5063_7014)">
<path d="M11.9999 1.71429C8.84909 1.71429 6.28566 4.1428 6.28566 7.12782C6.28566 10.1128 8.84909 12.5414 11.9999 12.5414C15.1508 12.5414 17.7142 10.1128 17.7142 7.12782C17.7142 4.1428 15.1508 1.71429 11.9999 1.71429ZM11.9999 10.3759C10.1097 10.3759 8.57138 8.91862 8.57138 7.12782C8.57138 5.33702 10.1097 3.8797 11.9999 3.8797C13.8902 3.8797 15.4285 5.33702 15.4285 7.12782C15.4285 8.91862 13.8902 10.3759 11.9999 10.3759ZM22.2857 22.2857V21.203C22.2857 17.0248 18.6959 13.6241 14.2857 13.6241H9.71423C5.30281 13.6241 1.71423 17.0248 1.71423 21.203V22.2857H3.99995V21.203C3.99995 18.218 6.56338 15.7895 9.71423 15.7895H14.2857C17.4365 15.7895 19.9999 18.218 19.9999 21.203V22.2857H22.2857Z" fill="white"/>
</g>
<defs>
<clipPath id="clip0_5063_7014">
<rect width="20.5714" height="20.5714" fill="white" transform="translate(1.71423 1.71429)"/>
</clipPath>
</defs>
</svg>
