<svg width="413" height="416" viewBox="0 0 413 416" fill="none" xmlns="http://www.w3.org/2000/svg">
<path d="M316.521 414H316.021V415.208L316.874 414.353L316.521 414ZM316.521 96.5238H317.021V96.0238H316.521V96.5238ZM412 318.476L412.354 318.83L412.5 318.683V318.476H412ZM412 1L412.5 1V0.5H412V1ZM94.6712 1V0.500004H94.4597L94.3124 0.65185L94.6712 1ZM2 96.5238L1.64113 96.1757L0.818302 97.0238H2V96.5238ZM317.021 414L317.021 96.5238H316.021L316.021 414H317.021ZM411.646 318.123L316.167 413.647L316.874 414.353L412.354 318.83L411.646 318.123ZM411.5 1L411.5 318.476H412.5L412.5 1L411.5 1ZM412 0.5L94.6712 0.500004V1.5L412 1.5V0.5ZM94.3124 0.65185L1.64113 96.1757L2.35887 96.872L95.0301 1.34816L94.3124 0.65185ZM2 97.0238H316.521V96.0238H2V97.0238Z" fill="#8148E4"/>
</svg>
