<svg width="330" height="330" viewBox="0 0 330 330" fill="none" xmlns="http://www.w3.org/2000/svg">
<path d="M253.616 329H253.116V330.204L253.969 329.354L253.616 329ZM253.616 76.0952H254.116V75.5952H253.616V76.0952ZM330 252.905L330.353 253.259L330.5 253.112V252.905H330ZM330 0H330.5V-0.5H330V0ZM76.137 3.32623e-06V-0.499997H75.926L75.7789 -0.348912L76.137 3.32623e-06ZM2 76.0952L1.64187 75.7463L0.814799 76.5952H2V76.0952ZM254.116 329L254.116 76.0952H253.116L253.116 329H254.116ZM329.647 252.551L253.264 328.646L253.969 329.354L330.353 253.259L329.647 252.551ZM329.5 0V252.905H330.5V0H329.5ZM330 -0.5L76.137 -0.499997V0.500003L330 0.5V-0.5ZM75.7789 -0.348912L1.64187 75.7463L2.35813 76.4442L76.4951 0.348919L75.7789 -0.348912ZM2 76.5952H253.616V75.5952H2V76.5952Z" fill="#8148E4"/>
</svg>
